<svg width="1024" height="768" xmlns="http://www.w3.org/2000/svg">
 <g id="Layer_1">
  <title>Layer 1</title>
  <ellipse ry="197" rx="324.5" id="svg_10" cy="292.2" cx="389.7" stroke-width="0" stroke="#fff" fill="#f2e6eb"/>
  <path id="svg_1" d="m460.7,442.69999c-117.12707,0 -212,-62.42818 -212,-139.5c0,-77.07182 94.87293,-139.5 212,-139.5c117.12707,0 212,62.42818 212,139.5c0,77.07182 -94.87293,139.5 -212,139.5z" opacity="undefined" stroke-width="0" stroke="#fff" fill="#A0D58A"/>
  <text xml:space="preserve" text-anchor="start" font-family="Noto Sans JP" font-size="24" id="svg_3" y="177.7" x="247.70001" stroke-width="0" stroke="#fff" fill="#e0b3c9">类空</text>
  <text xml:space="preserve" text-anchor="start" font-family="Noto Sans JP" font-size="24" id="svg_4" y="289.7" x="538.7" stroke-width="0" stroke="#fff" fill="#f2eaee">类时</text>
  <text xml:space="preserve" text-anchor="start" font-family="Noto Sans JP" font-size="20" id="svg_5" y="316.69999" x="490.7" stroke-width="0" stroke="#fff" fill="#f2eaee">（时序和因果）</text>
  <path id="svg_6" d="m270.2,430.69999c-72.65193,0 -131.5,-45.19889 -131.5,-101c0,-55.8011 58.84807,-101 131.5,-101c72.65193,0 131.5,45.19889 131.5,101c0,55.8011 -58.84807,101 -131.5,101z" opacity="undefined" stroke-width="0" stroke="#fff" fill-opacity="0.5" fill="#56aaff"/>
  <text xml:space="preserve" text-anchor="start" font-family="Noto Sans JP" font-size="20" id="svg_7" y="333.69999" x="184.70001" stroke-width="0" stroke="#fff" fill="#f2eaee">日常提及的相关</text>
  <rect stroke="#fff" id="svg_11" height="36" width="80" y="640.2" x="47.53334" stroke-width="0" fill="#f2e6eb"/>
  <rect opacity="undefined" id="svg_13" height="37" width="80" y="684.2" x="47.53334" stroke-width="0" stroke="#fff" fill="#A0D58A"/>
  <text xml:space="preserve" text-anchor="start" font-family="Noto Sans JP" font-size="20" id="svg_14" y="666.2" x="141.53334" stroke-width="0" stroke="#4c4c4c" fill="#a0989d">相对独立事件</text>
  <text xml:space="preserve" text-anchor="start" font-family="Noto Sans JP" font-size="20" id="svg_15" y="711.53333" x="141.53334" stroke-width="0" stroke="#fff" fill="#a0989b">相对独立事件</text>
  <text xml:space="preserve" text-anchor="start" font-family="Noto Sans JP" font-size="30" id="svg_16" y="534.93332" x="257.59999" stroke-width="0" stroke="#fff" fill="#b5aaaf">定域下事件间的关系</text>
  <text stroke="#fff" xml:space="preserve" text-anchor="start" font-family="Noto Sans JP" font-size="26" id="svg_17" y="502.93332" x="817.59999" stroke-width="0" fill="#af9ea7">非定域？</text>
  <ellipse ry="101.33333" rx="124.66666" id="svg_18" cy="366.93332" cx="862.26665" stroke-width="0" stroke="#fff" fill="#af9ea7"/>
  <text xml:space="preserve" text-anchor="start" font-family="Noto Sans JP" font-size="20" id="svg_21" y="373.59999" x="770.93332" stroke-width="0" stroke="#fff" fill="#f2e6eb">量子力学增添的相关</text>
  <path id="svg_23" d="m-278.32967,198.52157l0.56913,0l0.17587,-0.54067l0.17587,0.54067l0.56913,0l-0.46044,0.33415l0.17588,0.54067l-0.46044,-0.33416l-0.46044,0.33416l0.17588,-0.54067l-0.46044,-0.33415z" stroke-width="0" stroke="#fff" fill="#af9ea7"/>
  <path id="svg_24" d="m-174.84967,108.30824l0.56913,0l0.17587,-0.54067l0.17587,0.54067l0.56913,0l-0.46044,0.33415l0.17588,0.54067l-0.46044,-0.33416l-0.46044,0.33416l0.17588,-0.54067l-0.46044,-0.33415z" stroke-width="0" stroke="#fff" fill="#af9ea7"/>
  <line stroke-width="0" id="svg_25" y2="170.93332" x2="606.93332" y1="317.59999" x1="836.26665" stroke="#fff" fill="none"/>
  <line stroke="#af9ea7" id="svg_31" y2="332.26665" x2="860.26664" y1="173.59999" x1="626.93331" stroke-width="4" fill="none"/>
 </g>
</svg>